<svg width="41" height="44" viewBox="0 0 41 44" fill="none" xmlns="http://www.w3.org/2000/svg">
<path d="M2.71626 0.256378C5.15884 0.256378 7.60141 0.256378 10.118 0.256378C10.0322 0.771444 9.94306 1.14759 9.76123 1.62346C9.71108 1.75564 9.66093 1.88782 9.60926 2.024C9.55452 2.16637 9.49976 2.30874 9.44499 2.4511C9.38893 2.59818 9.33293 2.74528 9.27698 2.8924C9.13021 3.27788 8.98268 3.66306 8.83499 4.04818C8.68416 4.4419 8.53404 4.83589 8.38388 5.22986C8.08967 6.00162 7.79427 6.77291 7.49892 7.54424C9.26509 7.54424 11.0313 7.54424 12.8509 7.54424C12.6833 7.96343 12.576 8.20973 12.3212 8.55352C12.2616 8.63475 12.202 8.71598 12.1406 8.79967C12.0767 8.88564 12.0129 8.9716 11.9471 9.06017C11.8117 9.24494 11.6765 9.42984 11.5414 9.61485C11.4739 9.70731 11.4064 9.79977 11.3368 9.89503C11.0592 10.279 10.7905 10.6686 10.5237 11.0601C10.0583 11.7416 9.58822 12.4197 9.11449 13.0955C9.04742 13.1912 8.98034 13.2869 8.91124 13.3855C8.77445 13.5806 8.63764 13.7757 8.50081 13.9707C8.16653 14.4474 7.83274 14.9244 7.49892 15.4015C7.09383 15.9803 6.68866 16.559 6.28324 17.1376C6.21443 17.2358 6.14563 17.3341 6.07473 17.4353C5.93938 17.6285 5.80393 17.8216 5.66839 18.0146C5.37179 18.4376 5.07676 18.8614 4.78777 19.2896C4.74018 19.3598 4.6926 19.4299 4.64357 19.5022C4.51946 19.6858 4.39625 19.87 4.27312 20.0542C4.21029 20.1347 4.14747 20.2151 4.08274 20.298C4.00758 20.298 3.93243 20.298 3.85499 20.298C4.00849 19.1607 4.19635 18.0326 4.40389 16.904C4.43423 16.7378 4.46454 16.5716 4.49483 16.4054C4.57356 15.9737 4.65265 15.542 4.73182 15.1104C4.82731 14.5893 4.92233 14.0683 5.01743 13.5472C5.16101 12.7608 5.30516 11.9745 5.44921 11.1882C3.68304 11.1882 1.91688 11.1882 0.0971909 11.1882C0.225298 10.1633 0.225298 10.1633 0.319864 9.78721C0.3411 9.70164 0.362336 9.61607 0.384215 9.52791C0.407231 9.43748 0.430247 9.34705 0.453961 9.25389C0.478412 9.15601 0.502863 9.05814 0.528056 8.9573C0.608261 8.6368 0.689223 8.31648 0.770197 7.99617C0.826248 7.77281 0.882252 7.54945 0.93821 7.32607C1.08507 6.74038 1.23256 6.15486 1.3802 5.56937C1.5575 4.86565 1.734 4.16174 1.91063 3.45786C2.17856 2.39055 2.44751 1.32349 2.71626 0.256378Z" fill="#F8F8F8"/>
<path d="M13.9278 24.7519C14.1311 24.7516 14.3343 24.7512 14.5376 24.7506C14.961 24.7499 15.3843 24.7509 15.8077 24.753C16.346 24.7556 16.8841 24.7541 17.4224 24.7514C17.8413 24.7497 18.2603 24.7503 18.6792 24.7514C18.8775 24.7517 19.0758 24.7514 19.274 24.7503C21.4192 24.7413 23.1767 25.1886 24.806 26.6649C25.0688 26.9349 25.2882 27.2085 25.5045 27.5162C27.7562 30.7006 31.2711 31.1053 34.8831 31.7255C36.6155 32.035 37.8686 32.5632 39.0012 33.9222C38.1744 33.9222 37.3477 33.9222 36.496 33.9222C36.496 34.5235 36.496 35.1247 36.496 35.7442C37.6609 35.7442 38.8258 35.7442 40.026 35.7442C40.1169 36.1076 40.1539 36.3481 40.1528 36.7113C40.1528 36.8116 40.1528 36.9119 40.1528 37.0152C40.1522 37.1224 40.1516 37.2297 40.151 37.3402C40.1508 37.506 40.1508 37.506 40.1505 37.6752C40.1499 38.0279 40.1485 38.3806 40.147 38.7333C40.1464 38.9727 40.1459 39.212 40.1455 39.4513C40.1443 40.0376 40.1421 40.6238 40.1399 41.2101C38.5992 41.2101 37.0585 41.2101 35.4711 41.2101C35.4335 40.6088 35.396 40.0076 35.3572 39.3881C35.0231 38.1999 34.4555 37.2468 33.4214 36.5413C32.2709 35.9309 31.0304 35.7782 29.753 36.0498C28.6562 36.4205 27.6825 37.1346 27.133 38.1702C26.6537 39.2182 26.6675 39.954 26.589 41.2101C22.0045 41.2101 17.42 41.2101 12.6966 41.2101C12.659 40.6088 12.6214 40.0076 12.5827 39.3881C12.2485 38.1999 11.681 37.2468 10.6468 36.5413C9.49631 35.9309 8.25582 35.7782 6.97845 36.0498C5.88165 36.4205 4.90791 37.1346 4.35848 38.1702C3.87916 39.2182 3.89298 39.954 3.81447 41.2101C2.5744 41.2101 1.33432 41.2101 0.0566723 41.2101C0.0463745 40.0193 0.0380204 38.8285 0.0330719 37.6376C0.0306966 37.0846 0.0274759 36.5317 0.0223103 35.9787C0.0173548 35.4449 0.0146362 34.9111 0.0134565 34.3773C0.0126161 34.1738 0.0109748 33.9703 0.00851318 33.7668C0.00519798 33.4814 0.00475167 33.1961 0.00496247 32.9107C0.00332486 32.8269 0.00168724 32.7431 0 32.6567C0.00463284 32.0756 0.146518 31.7503 0.512163 31.3031C1.0062 30.9169 1.34662 30.8277 1.96938 30.7938C4.41714 30.6231 5.60666 29.4064 7.20719 27.6418C9.16643 25.4824 11.0185 24.7362 13.9278 24.7519ZM12.2411 26.8621C12.1678 26.886 12.0946 26.91 12.0191 26.9346C10.6892 27.4876 9.63068 28.8933 8.6256 29.894C8.56802 29.9512 8.51044 30.0085 8.45111 30.0675C8.28652 30.2314 8.12244 30.3958 7.95838 30.5603C7.86212 30.6567 7.76586 30.7531 7.66669 30.8524C7.44545 31.0384 7.44545 31.0384 7.4584 31.1893C10.1264 31.1893 12.7945 31.1893 15.5434 31.1893C15.5434 29.6862 15.5434 28.183 15.5434 26.6344C13.8606 26.5715 13.8606 26.5715 12.2411 26.8621ZM17.3653 26.6344C17.3653 28.1375 17.3653 29.6406 17.3653 31.1893C20.0334 31.1893 22.7014 31.1893 25.4503 31.1893C24.8576 30.4978 24.2458 29.8459 23.6042 29.2019C23.4227 29.0194 23.2425 28.8356 23.0623 28.6518C21.9767 27.555 21.0891 26.8573 19.5289 26.6344C18.8149 26.6344 18.101 26.6344 17.3653 26.6344Z" fill="#F8F8F8"/>
<path d="M33.3133 0C33.3885 0 33.4636 0 33.5411 0C33.5936 0.125505 33.6462 0.251009 33.7003 0.380317C34.6827 2.68354 36.0333 4.69604 37.4839 6.72828C39.2741 9.24253 40.6175 11.4298 40.2111 14.614C39.8691 16.0114 39.1192 17.225 38.096 18.2196C38.0261 18.2919 37.9562 18.3641 37.8843 18.4385C36.5587 19.7188 34.9052 20.0889 33.1275 20.0833C32.2532 20.0674 31.4988 19.9442 30.6943 19.5861C30.5875 19.5391 30.4808 19.4922 30.3709 19.4438C28.7107 18.6242 27.5258 17.1985 26.8795 15.4796C26.3662 13.9372 26.3341 11.9473 27.0503 10.4763C27.1127 10.3452 27.1751 10.2141 27.2394 10.0791C27.8789 8.79079 28.7171 7.63791 29.5538 6.47296C31.0071 4.44381 32.3477 2.30916 33.3133 0ZM35.7047 12.9815C35.6765 13.1553 35.6483 13.3291 35.6193 13.5082C35.4863 14.1665 35.2412 14.5774 34.7723 15.0597C34.3336 15.3327 33.935 15.3957 33.4272 15.4867C33.4272 16.0504 33.4272 16.614 33.4272 17.1948C34.5165 17.274 35.3067 16.8653 36.1437 16.1837C36.9136 15.4223 37.4175 14.477 37.427 13.3872C37.4223 13.2533 37.4176 13.1194 37.4128 12.9815C36.8491 12.9815 36.2854 12.9815 35.7047 12.9815Z" fill="#F8F8F8"/>
<path d="M32.3325 37.737C32.9958 38.1378 33.5332 38.7607 33.763 39.502C33.8547 40.3943 33.8911 41.2806 33.3075 42.0072C32.7604 42.5817 32.2643 42.9872 31.4549 43.0703C30.4851 43.081 29.8144 43.0455 29.0982 42.3635C28.3715 41.5774 28.2424 40.9594 28.2624 39.8943C28.3416 38.9991 28.758 38.5285 29.4247 37.9585C30.2292 37.4042 31.4393 37.3412 32.3325 37.737Z" fill="#F8F8F8"/>
<path d="M9.55793 37.737C10.2212 38.1378 10.7587 38.7607 10.9885 39.502C11.0801 40.3943 11.1165 41.2806 10.533 42.0072C9.98587 42.5817 9.48969 42.9872 8.68031 43.0703C7.71055 43.081 7.03981 43.0455 6.32368 42.3635C5.59697 41.5774 5.46786 40.9594 5.48787 39.8943C5.56705 38.9991 5.98347 38.5285 6.65018 37.9585C7.45462 37.4042 8.66472 37.3412 9.55793 37.737Z" fill="#F8F8F8"/>
</svg>
