<svg width="49" height="49" viewBox="0 0 49 49" fill="none" xmlns="http://www.w3.org/2000/svg">
<g clip-path="url(#clip0_5_5)">
<path d="M49 22.0199C49 19.1851 46.6937 16.8787 43.8588 16.8787C41.0239 16.8787 38.7176 19.1851 38.7176 22.0199C38.7176 23.3095 39.196 24.4887 39.9829 25.392L34.6682 30.2675L27.8899 16.2596L31.8516 11.6063L24.5278 3.00394L17.2043 11.6066L20.9896 16.0526L14.2597 30.1878L9.01956 25.3894C9.80534 24.4862 10.2826 23.3082 10.2826 22.0199C10.2826 19.1851 7.97631 16.8787 5.14144 16.8787C2.30634 16.8787 0 19.1851 0 22.0199C0 24.6468 1.98116 26.8186 4.5276 27.1233L6.10295 45.9961H42.8973L44.4726 27.1233C47.0188 26.8186 49 24.6468 49 22.0199Z" fill="#FDFDFD"/>
</g>
<defs>
<clipPath id="clip0_5_5">
<rect width="49" height="49" fill="white"/>
</clipPath>
</defs>
</svg>
