<svg width="33" height="45" viewBox="0 0 33 45" fill="none" xmlns="http://www.w3.org/2000/svg">
<path fill-rule="evenodd" clip-rule="evenodd" d="M19.7539 0.753777C20.3705 1.01758 20.7267 1.66869 20.6164 2.33016L17.9897 18.091H30.8179C31.3689 18.091 31.8727 18.4022 32.1191 18.895C32.3652 19.3878 32.3123 19.9775 31.9815 20.4182L14.5272 43.6909C14.1248 44.2274 13.4079 44.4191 12.7913 44.1552C12.1748 43.8917 11.8186 43.2403 11.9288 42.5791L14.5556 26.8182H1.72726C1.17633 26.8182 0.672652 26.5069 0.426281 26.0141C0.179881 25.5214 0.23306 24.9317 0.563619 24.4909L18.0181 1.21831C18.4204 0.681839 19.1374 0.489968 19.7539 0.753777ZM4.63635 23.9091H16.2726C16.7002 23.9091 17.1061 24.0972 17.3825 24.4235C17.6588 24.7497 17.7777 25.181 17.7074 25.6028L15.7789 37.1734L27.9088 21H16.2726C15.8451 21 15.4392 20.8119 15.1628 20.4857C14.8864 20.1594 14.7676 19.7281 14.8379 19.3064L16.7663 7.73579L4.63635 23.9091Z" fill="white"/>
</svg>
