<svg width="32" height="43" viewBox="0 0 32 43" fill="none" xmlns="http://www.w3.org/2000/svg">
<path d="M24.8678 0.00739946C24.9241 0.00652411 24.9804 0.00564876 25.0384 0.00474688C26.3207 -0.0108656 26.3207 -0.0108656 26.7695 0.384583C27.1511 0.97042 27.3262 1.63608 27.5012 2.30521C27.5303 2.41356 27.5594 2.52188 27.5887 2.63018C27.6518 2.86475 27.7143 3.09946 27.7764 3.33429C27.8766 3.7131 27.978 4.09158 28.0797 4.47001C28.1907 4.88373 28.3016 5.29748 28.4122 5.71134C28.8456 7.33428 29.2853 8.95552 29.7248 10.5768C29.8932 11.1978 30.0613 11.8189 30.2293 12.4399C30.2975 12.6917 30.3656 12.9435 30.4338 13.1953C30.4762 13.352 30.5186 13.5088 30.561 13.6656C30.6008 13.8127 30.6406 13.9598 30.6804 14.1068C30.7184 14.2472 30.7563 14.3876 30.794 14.528C30.8864 14.8702 30.9816 15.2112 31.0822 15.551C31.1116 15.6518 31.1116 15.6518 31.1415 15.7546C31.1782 15.8797 31.2156 16.0047 31.254 16.1293C31.3736 16.5409 31.4594 16.9727 31.3795 17.3998C31.2479 17.5599 31.1459 17.6423 30.9604 17.735C30.7831 17.7431 30.6055 17.7461 30.428 17.7468C28.3705 17.7713 26.5137 18.0554 24.5902 18.8247C24.5301 18.8487 24.47 18.8728 24.408 18.8975C22.8452 19.5355 21.3601 20.3688 19.8806 21.1768C19.7693 21.2376 19.7693 21.2376 19.6557 21.2997C19.2657 21.5133 18.877 21.729 18.4894 21.9469C16.9241 22.8204 15.2832 23.6382 13.5319 24.0631C13.4127 24.0921 13.2938 24.1224 13.1752 24.154C12.2519 24.397 11.3584 24.4721 10.4039 24.4772C10.3001 24.478 10.1964 24.4789 10.0895 24.4798C9.53145 24.4744 9.0772 24.4547 8.58082 24.1891C8.25949 23.8505 8.09393 23.5766 7.95314 23.1254C7.93609 23.0713 7.91903 23.0172 7.90146 22.9614C7.684 22.2598 7.49656 21.5494 7.30815 20.8396C7.26681 20.685 7.22543 20.5305 7.18401 20.3759C7.09597 20.0472 7.00816 19.7183 6.92053 19.3895C6.71194 18.6066 6.5023 17.824 6.29271 17.0414C6.24487 16.8627 6.19704 16.684 6.14923 16.5054C5.80308 15.2118 5.45403 13.919 5.10202 12.627C5.08049 12.548 5.05896 12.4689 5.03678 12.3875C4.83102 11.632 4.625 10.8766 4.41842 10.1214C4.34333 9.84671 4.26843 9.57196 4.19358 9.29719C4.15906 9.17066 4.12445 9.04416 4.08974 8.91768C4.0425 8.74554 3.99556 8.57332 3.9487 8.40107C3.90932 8.2571 3.90932 8.2571 3.86914 8.11021C3.66761 7.29849 3.66761 7.29849 3.88698 6.92244C4.17009 6.73371 4.4151 6.73471 4.74972 6.73483C4.90785 6.73327 4.90785 6.73327 5.06918 6.73168C5.12497 6.73126 5.18075 6.73085 5.23823 6.73042C8.90415 6.69198 11.951 5.13343 15.103 3.41253C15.2156 3.35107 15.2156 3.35107 15.3306 3.28836C15.7428 3.0631 16.1539 2.8361 16.5642 2.60741C18.2028 1.70093 19.9142 0.841552 21.7403 0.384583C21.8013 0.368511 21.8623 0.352439 21.9252 0.33588C22.9007 0.0865143 23.8648 0.0150181 24.8678 0.00739946ZM20.5669 2.98296C20.6149 3.5214 20.7097 4.0184 20.8547 4.53852C20.8746 4.61147 20.8946 4.68442 20.9151 4.75959C20.9571 4.91229 20.9993 5.06492 21.0417 5.21748C21.1068 5.45155 21.1706 5.68594 21.2343 5.92038C21.2753 6.06921 21.3164 6.21802 21.3576 6.36681C21.3766 6.43692 21.3957 6.50702 21.4153 6.57925C21.5138 6.95316 21.5138 6.95316 21.7403 7.25771C21.8073 7.23684 21.8073 7.23684 21.8756 7.21554C23.3388 6.76166 24.7397 6.46627 26.2666 6.33571C26.1673 5.94234 26.0675 5.54911 25.9673 5.15598C25.9334 5.02289 25.8997 4.88977 25.8661 4.75662C25.6368 3.84808 25.3823 2.95229 25.0931 2.06096C23.5624 2.06096 21.995 2.4537 20.5669 2.98296ZM15.3315 5.71296C15.2532 5.75995 15.1749 5.80693 15.0943 5.85535C15.009 5.90668 14.9237 5.95802 14.8358 6.01091C13.7027 6.6841 12.532 7.26905 11.3468 7.84444C11.6602 9.25453 12.0518 10.6435 12.4365 12.0354C13.0595 11.8489 13.6123 11.5849 14.1862 11.281C14.2772 11.2332 14.3681 11.1853 14.4619 11.136C15.0484 10.8254 15.6314 10.5089 16.2083 10.1809C16.2754 10.1433 16.3425 10.1057 16.4116 10.0669C16.4724 10.0317 16.5333 9.9965 16.596 9.96021C16.6489 9.92983 16.7019 9.89946 16.7564 9.86816C16.9054 9.76963 16.9054 9.76963 16.9627 9.52081C16.9334 9.33104 16.9334 9.33104 16.8722 9.12294C16.8394 9.00215 16.8394 9.00215 16.806 8.87891C16.7696 8.74885 16.7696 8.74885 16.7325 8.61616C16.7082 8.52722 16.6839 8.43827 16.6589 8.34663C16.5809 8.06205 16.502 7.77775 16.4231 7.49345C16.3702 7.30078 16.3173 7.1081 16.2645 6.9154C16.1347 6.44257 16.0042 5.96996 15.873 5.49752C15.642 5.49752 15.5288 5.59278 15.3315 5.71296ZM20.9473 7.62016C20.855 7.66448 20.7626 7.7088 20.6674 7.75446C20.5685 7.80317 20.4697 7.85188 20.3678 7.90207C20.2925 7.93873 20.2925 7.93873 20.2157 7.97614C19.1598 8.49032 18.1084 9.03638 17.1303 9.68845C17.1846 10.2433 17.3075 10.7637 17.4518 11.3016C17.4753 11.3898 17.4988 11.4779 17.523 11.5688C17.5725 11.7539 17.6222 11.9389 17.6722 12.1239C17.7487 12.4082 17.8236 12.6928 17.8984 12.9775C17.9468 13.1576 17.9953 13.3376 18.0438 13.5176C18.0772 13.6458 18.0772 13.6458 18.1113 13.7766C18.1328 13.855 18.1544 13.9333 18.1765 14.0141C18.1951 14.0834 18.2136 14.1526 18.2327 14.224C18.2679 14.3024 18.2679 14.3024 18.3038 14.3823C18.5492 14.4953 18.5492 14.4953 18.7549 14.3786C18.8328 14.3332 18.9107 14.2879 18.991 14.2412C19.0779 14.1914 19.1649 14.1415 19.2544 14.0902C19.347 14.0362 19.4395 13.9822 19.5349 13.9265C19.7256 13.8174 19.9165 13.7085 20.1075 13.5998C20.2006 13.5467 20.2937 13.4937 20.3896 13.4391C21.2083 12.9799 22.0588 12.5889 22.9138 12.203C22.7888 11.7231 22.6636 11.2432 22.5383 10.7634C22.4958 10.6007 22.4534 10.438 22.411 10.2752C22.2907 9.81338 22.1695 9.35182 22.0468 8.89061C21.9956 8.69699 21.9456 8.50309 21.8957 8.30913C21.8673 8.20267 21.839 8.09622 21.8098 7.98654C21.774 7.84945 21.774 7.84945 21.7375 7.70959C21.7108 7.64345 21.6841 7.57731 21.6565 7.50917C21.3307 7.40057 21.2519 7.47327 20.9473 7.62016ZM22.9976 12.203C23.1489 12.7851 23.3011 13.3669 23.454 13.9486C23.5059 14.1466 23.5576 14.3446 23.6091 14.5427C23.683 14.8271 23.7577 15.1112 23.8325 15.3953C23.8555 15.4843 23.8785 15.5733 23.9021 15.6649C23.9239 15.7472 23.9457 15.8294 23.9682 15.9141C23.9872 15.9867 24.0062 16.0593 24.0257 16.134C24.0783 16.3254 24.0783 16.3254 24.2549 16.4778C24.3526 16.4453 24.4503 16.4129 24.5509 16.3795C25.9364 15.9343 27.3346 15.6951 28.7811 15.5558C28.6277 14.9738 28.474 14.392 28.3202 13.8102C28.2678 13.6122 28.2155 13.4141 28.1633 13.216C28.0884 12.9318 28.0132 12.6476 27.938 12.3634C27.9146 12.2745 27.8912 12.1855 27.8671 12.0938C27.8453 12.0116 27.8235 11.9294 27.801 11.8447C27.7818 11.7721 27.7627 11.6995 27.7429 11.6247C27.6964 11.446 27.6964 11.446 27.6077 11.281C26.056 11.2047 24.4279 11.6253 22.9976 12.203ZM11.7945 12.3648C10.4031 12.8519 9.04254 13.0924 7.575 13.2088C7.80124 14.2013 8.0486 15.1868 8.31568 16.1691C8.35685 16.3213 8.39755 16.4736 8.4378 16.626C8.49679 16.8493 8.55714 17.0722 8.61782 17.295C8.64455 17.3976 8.64455 17.3976 8.67181 17.5024C8.7173 17.6662 8.77384 17.8268 8.83228 17.9865C9.15439 18.0939 9.42898 18.051 9.75952 18.0127C9.82646 18.0049 9.89339 17.9972 9.96236 17.9892C10.9813 17.8625 11.9661 17.6248 12.9446 17.3159C13.0101 17.2961 13.0755 17.2762 13.1429 17.2558C13.3454 17.1923 13.3454 17.1923 13.6099 17.0645C13.7313 16.7892 13.6757 16.5852 13.5969 16.3027C13.5737 16.218 13.5504 16.1332 13.5265 16.0459C13.5007 15.9549 13.4748 15.864 13.4482 15.7702C13.4222 15.6764 13.3963 15.5826 13.3695 15.4859C13.2863 15.1859 13.2019 14.8863 13.1175 14.5866C13.0612 14.3843 13.005 14.182 12.9489 13.9797C12.846 13.6097 12.7428 13.2398 12.6389 12.8701C12.6179 12.7957 12.597 12.7214 12.5755 12.6447C12.5325 12.4965 12.4853 12.3495 12.4365 12.203C12.2046 12.203 12.011 12.2888 11.7945 12.3648ZM17.7658 14.9206C17.6892 14.9646 17.6126 15.0087 17.5337 15.0541C17.4092 15.1261 17.4092 15.1261 17.2822 15.1995C16.5783 15.6023 15.8694 15.9929 15.1501 16.3677C15.0693 16.41 14.9884 16.4523 14.9051 16.4959C14.5615 16.674 14.2228 16.841 13.8614 16.9807C13.9139 17.5136 14.0295 18.0083 14.1734 18.5235C14.1956 18.6044 14.2178 18.6853 14.2407 18.7686C14.3112 19.0249 14.3823 19.281 14.4534 19.5371C14.5015 19.7118 14.5496 19.8864 14.5976 20.061C14.7149 20.4872 14.8328 20.9133 14.951 21.3392C15.2015 21.2215 15.4518 21.1034 15.7021 20.9853C15.772 20.9524 15.8419 20.9196 15.9139 20.8857C17.1119 20.3199 18.2577 19.6732 19.3934 18.9923C19.3414 18.4817 19.238 18.0051 19.1027 17.5104C19.0725 17.398 19.0725 17.398 19.0416 17.2834C18.9993 17.1262 18.9567 16.9692 18.914 16.8121C18.8484 16.5711 18.7834 16.33 18.7186 16.0888C18.6773 15.9358 18.6359 15.7828 18.5945 15.6298C18.5653 15.5214 18.5653 15.5214 18.5355 15.411C18.5082 15.311 18.5082 15.311 18.4804 15.2091C18.4565 15.1211 18.4565 15.1211 18.4321 15.0313C18.3899 14.8781 18.3899 14.8781 18.3038 14.7176C18.0767 14.7176 17.9624 14.8065 17.7658 14.9206Z" fill="#F5F5F5"/>
<path d="M1.97487 6.34619C2.57354 6.7453 2.72279 7.20799 2.88552 7.87973C2.91882 8.00999 2.91882 8.00999 2.95279 8.14289C3.02593 8.43032 3.09711 8.7182 3.16831 9.00612C3.21976 9.20993 3.27134 9.41372 3.32304 9.61747C3.43076 10.043 3.53767 10.4688 3.64389 10.8947C3.79471 11.4994 3.94737 12.1036 4.10059 12.7077C4.37346 13.7847 4.64436 14.8621 4.91502 15.9396C5.15627 16.8996 5.39809 17.8595 5.63998 18.8195C5.66631 18.924 5.69265 19.0285 5.71978 19.1362C6.15343 20.8568 6.5929 22.5759 7.03684 24.2939C7.55779 26.3105 8.0684 28.3297 8.5769 30.3494C8.5937 30.4162 8.61051 30.4829 8.62782 30.5517C8.98836 31.9838 9.34848 33.416 9.7083 34.8483C9.82243 35.3026 9.93661 35.7569 10.0508 36.2112C10.142 36.5742 10.2332 36.9373 10.3243 37.3003C10.3808 37.5257 10.4375 37.7511 10.4941 37.9764C10.5345 38.1371 10.5747 38.2977 10.615 38.4584C10.7382 38.9486 10.8639 39.4379 10.9962 39.9258C11.0199 40.0138 11.0436 40.1018 11.068 40.1924C11.1117 40.3537 11.1561 40.5149 11.2013 40.6758C11.3737 41.3132 11.4598 41.8846 11.1216 42.4812C10.9317 42.7367 10.7244 42.8764 10.4248 42.9645C9.97891 43.0267 9.62484 43.0221 9.21471 42.8283C8.67624 42.3292 8.55038 41.7913 8.37783 41.0946C8.35009 40.9856 8.32227 40.8767 8.29437 40.7677C8.2167 40.4634 8.14028 40.1588 8.06404 39.8541C7.98027 39.5202 7.89535 39.1866 7.8106 38.853C7.6324 38.1505 7.45538 37.4478 7.27868 36.7449C7.10586 36.0576 6.93262 35.3704 6.75921 34.6833C6.73177 34.5745 6.70433 34.4658 6.67689 34.3571C6.635 34.1911 6.59311 34.025 6.55121 33.859C6.07036 31.9534 5.59028 30.0477 5.11071 28.1418C4.59804 26.1043 4.08435 24.0671 3.56743 22.0308C3.55298 21.9738 3.53853 21.9169 3.52364 21.8582C3.39582 21.3546 3.26797 20.8511 3.14007 20.3475C2.93726 19.549 2.73483 18.7503 2.53258 17.9516C2.48107 17.7482 2.42955 17.5448 2.37802 17.3414C2.2249 16.7369 2.07185 16.1323 1.91917 15.5277C1.8374 15.2038 1.75555 14.88 1.67365 14.5562C1.65762 14.4928 1.64158 14.4293 1.62506 14.364C1.40506 13.4946 1.1815 12.6262 0.955015 11.7585C0.865301 11.4144 0.776183 11.07 0.68706 10.7257C0.617871 10.4587 0.548077 10.1919 0.477448 9.92523C0.400675 9.63539 0.32538 9.34521 0.250372 9.05491C0.216712 8.9304 0.216712 8.9304 0.182372 8.80339C0.0158793 8.14974 -0.115652 7.43304 0.157058 6.79672C0.680013 6.27376 1.26257 6.09479 1.97487 6.34619Z" fill="#F5F5F5"/>
</svg>
