<svg width="494" height="310" viewBox="0 0 494 310" fill="none" xmlns="http://www.w3.org/2000/svg">
<path d="M115.344 240.285C119.945 245.05 121.754 250.146 122.312 256.625C122.186 262.801 120.222 268.433 116.164 273.121C110.111 278.698 104.696 280.479 96.5156 280.234C89.9146 279.619 86.1727 277.546 81.625 272.687C77.0452 267.111 75.5575 262.457 75.75 255.301C76.4676 248.697 79.2528 243.642 84 239C94.1008 232.468 105.913 232.381 115.344 240.285ZM94.125 252.125C92.4885 254.852 92.675 256.88 93 260C94.6635 263.154 94.6635 263.154 97.375 263.812C100.327 264.023 101.574 263.646 104 262C105.399 259.201 105.253 257.095 105 254C104 252 104 252 102 251C98.8507 250.606 96.8809 250.471 94.125 252.125Z" fill="#FDFDFD"/>
<path d="M27.9961 0.868572C29.0087 0.86473 30.0213 0.860889 31.0646 0.856932C32.1752 0.857798 33.2857 0.858665 34.43 0.859557C35.6113 0.856586 36.7926 0.853615 38.0097 0.850554C41.2897 0.843374 44.5697 0.840695 47.8498 0.839957C51.3871 0.838105 54.9244 0.830557 58.4617 0.823821C66.1973 0.810241 73.933 0.804214 81.6686 0.799811C86.4997 0.797048 91.3308 0.79281 96.1618 0.788306C109.54 0.776114 122.918 0.765815 136.296 0.762431C137.58 0.762102 137.58 0.762102 138.891 0.761766C139.749 0.761548 140.607 0.761329 141.491 0.761105C143.231 0.760661 144.97 0.760215 146.709 0.759765C148.003 0.759433 148.003 0.759433 149.323 0.759094C163.297 0.755147 177.271 0.737696 191.246 0.714405C205.596 0.690682 219.946 0.678229 234.296 0.677063C242.352 0.676147 250.408 0.670408 258.464 0.652244C265.325 0.636829 272.185 0.631731 279.046 0.639982C282.545 0.643884 286.043 0.642983 289.542 0.628925C293.34 0.616235 297.137 0.622066 300.935 0.632507C302.584 0.620422 302.584 0.620422 304.267 0.608093C312.716 0.662381 320.34 1.78899 326.812 7.625C327.874 8.54152 327.874 8.54152 328.957 9.47656C335.884 18.0325 335.495 27.0941 335.25 37.5625C335.23 39.0631 335.212 40.5638 335.195 42.0645C335.152 45.7102 335.083 49.3549 335 53C335.993 52.9889 336.985 52.9778 338.008 52.9664C347.393 52.8647 356.779 52.7899 366.165 52.7409C370.99 52.7149 375.814 52.6797 380.639 52.6228C385.301 52.5682 389.962 52.5385 394.624 52.5256C396.397 52.5164 398.17 52.4985 399.942 52.4713C410.602 52.3148 419.702 52.193 428.007 59.8504C432.84 64.8717 436.163 70.9669 439.562 77C440.793 79.146 442.023 81.2918 443.254 83.4375C443.875 84.528 444.497 85.6186 445.137 86.7422C448.057 91.8484 451.03 96.9231 454 102C455.167 104 456.334 106 457.5 108C458.366 109.485 458.366 109.485 459.25 111C461 114 462.75 117 464.5 120C465.367 121.487 465.367 121.487 466.252 123.004C467.412 124.991 468.57 126.979 469.728 128.967C472.755 134.162 475.794 139.35 478.852 144.527C479.799 146.137 479.799 146.137 480.766 147.779C481.967 149.821 483.173 151.86 484.383 153.896C485.203 155.292 485.203 155.292 486.039 156.715C486.516 157.52 486.992 158.326 487.483 159.156C487.984 160.095 488.484 161.033 489 162C489.348 162.576 489.696 163.151 490.054 163.745C494.115 171.309 493.599 179.374 493.566 187.715C493.572 189.337 493.578 190.959 493.585 192.582C493.596 195.97 493.591 199.358 493.576 202.746C493.559 207.064 493.583 211.381 493.618 215.7C493.64 219.047 493.638 222.393 493.63 225.74C493.629 227.331 493.636 228.922 493.651 230.513C493.731 240.63 493.264 249.329 486.025 257.127C478.331 264.457 472.214 265.333 461.816 265.105C460.422 265.053 460.422 265.053 459 265C458.853 265.739 458.706 266.477 458.555 267.238C455.293 281.991 448.149 293.093 435.543 301.465C422.959 309.062 409.164 311.078 394.75 307.812C380.99 303.852 369.504 295.342 362 283C359.146 276.916 357 271.768 357 265C288.69 265 220.38 265 150 265C149.67 267.31 149.34 269.62 149 272C144.918 284.921 136.797 296.078 124.852 302.762C111.239 309.314 97.6493 311.27 82.8711 307.031C70.283 302.51 59.2252 293.989 53 282C48 270.74 48 270.74 48 265C47.2345 265.026 46.4689 265.052 45.6802 265.079C42.162 265.184 38.6442 265.249 35.125 265.312C33.921 265.354 32.717 265.396 31.4766 265.439C22.5248 265.561 15.5664 264.244 8.85791 258.009C2.40425 251.237 0.54659 244.862 0.619053 235.746C0.614373 234.835 0.609694 233.924 0.604872 232.986C0.59294 229.944 0.602371 226.903 0.61182 223.862C0.607754 221.677 0.602413 219.491 0.595892 217.306C0.582222 211.379 0.587516 205.451 0.597029 199.524C0.604628 193.317 0.597579 187.111 0.592871 180.905C0.587064 169.814 0.596384 158.724 0.611649 147.633C0.625048 137.587 0.622726 127.541 0.608892 117.495C0.592877 105.817 0.58687 94.1399 0.595728 82.4624C0.600402 76.2851 0.601037 70.1079 0.591118 63.9306C0.582442 58.1218 0.588482 52.3131 0.605801 46.5043C0.609762 44.3743 0.608639 42.2442 0.602015 40.1142C0.593797 37.2028 0.604122 34.2921 0.619053 31.3809C0.612361 30.5413 0.605669 29.7017 0.598774 28.8366C0.682761 20.3726 3.24309 14.0036 9.03126 7.76172C14.4759 2.88959 20.7849 0.87885 27.9961 0.868572ZM19.1875 21.5C16.3191 25.1232 16.8628 29.3953 16.8798 33.7637C16.8789 34.5626 16.878 35.3614 16.8772 36.1845C16.8755 38.87 16.881 41.5555 16.8865 44.241C16.8868 46.1626 16.8866 48.0842 16.886 50.0058C16.8858 55.2306 16.8916 60.4555 16.8986 65.6804C16.9049 71.1376 16.9054 76.5949 16.9066 82.0522C16.9097 92.39 16.918 102.728 16.928 113.066C16.9392 124.833 16.9447 136.601 16.9497 148.369C16.9601 172.579 16.9777 196.79 17 221C23.2071 221.199 29.4123 221.344 35.6218 221.439C37.7296 221.479 39.8371 221.534 41.9441 221.604C57.7806 222.453 57.7806 222.453 71.0614 214.912C71.7012 214.281 72.3409 213.65 73 213C75.1219 211.742 77.1184 210.947 79.4375 210.062C80.8896 209.492 80.8896 209.492 82.3711 208.91C93.3852 205.097 107.61 205.428 118.387 209.727C123.676 212.304 128.886 214.985 133.169 219.068C136.688 221.47 139.438 221.55 143.549 221.481C144.676 221.486 144.676 221.486 145.826 221.491C148.34 221.498 150.853 221.476 153.366 221.454C155.17 221.453 156.974 221.454 158.777 221.456C163.672 221.457 168.566 221.433 173.46 221.406C178.576 221.381 183.691 221.378 188.807 221.373C198.493 221.361 208.179 221.328 217.865 221.288C228.893 221.243 239.921 221.221 250.948 221.201C273.632 221.159 296.316 221.089 319 221C319.14 195.566 319.246 170.132 319.311 144.697C319.342 132.887 319.384 121.078 319.453 109.268C319.512 98.9752 319.551 88.6823 319.565 78.3891C319.572 72.9387 319.591 67.4888 319.634 62.0385C319.675 56.9076 319.688 51.7775 319.679 46.6464C319.68 44.7643 319.692 42.8821 319.715 41C319.745 38.4267 319.738 35.8561 319.722 33.2827C319.739 32.5405 319.756 31.7982 319.775 31.0335C319.684 25.7837 318.039 23.095 314.678 19.3377C311.471 16.7808 308.093 16.8744 304.12 16.8686C302.641 16.8628 302.641 16.8628 301.131 16.8569C300.049 16.8578 298.968 16.8587 297.854 16.8596C296.127 16.8551 296.127 16.8551 294.366 16.8506C291.172 16.8434 287.977 16.8407 284.783 16.84C281.337 16.8381 277.892 16.8306 274.447 16.8238C266.914 16.8102 259.381 16.8042 251.848 16.7998C247.145 16.797 242.442 16.7928 237.739 16.7883C224.718 16.7761 211.698 16.7658 198.678 16.7624C197.844 16.7622 197.011 16.762 196.153 16.7618C194.9 16.7614 194.9 16.7614 193.622 16.7611C191.929 16.7607 190.237 16.7602 188.544 16.7598C187.705 16.7595 186.865 16.7593 186 16.7591C172.393 16.7551 158.785 16.7377 145.177 16.7144C131.208 16.6907 117.239 16.6782 103.269 16.6771C95.4252 16.6761 87.5813 16.6704 79.7374 16.6522C73.0592 16.6369 66.3812 16.6317 59.7031 16.64C56.2957 16.6439 52.8886 16.6429 49.4813 16.6289C45.7875 16.6163 42.0942 16.622 38.4004 16.6325C36.7849 16.6204 36.7849 16.6204 35.1367 16.6081C28.7503 16.6505 24.2697 17.2941 19.1875 21.5ZM335 69C335 128.4 335 187.8 335 249C342.26 249 349.52 249 357 249C357.557 247.041 358.114 245.081 358.688 243.062C362.812 229.799 369.905 219.641 382.047 212.508C394.874 205.959 410.651 204.378 424.562 208.562C438.757 214.256 448.429 223.262 455 237C455.995 239.959 456.804 242.875 457.492 245.918C457.803 247.976 457.803 247.976 459 249C464.022 249.577 467.939 249.53 472.5 247.25C475.72 244.352 476.838 242.471 477.315 238.148C477.343 237.045 477.372 235.941 477.402 234.805C477.437 233.548 477.472 232.292 477.509 230.997C477.535 229.623 477.559 228.249 477.582 226.875C477.6 225.826 477.6 225.826 477.618 224.755C477.677 221.036 477.721 217.318 477.755 213.599C477.786 210.56 477.848 207.525 477.94 204.487C478.469 186.511 478.274 172.072 467.336 156.875C465.558 154.379 464.07 151.75 462.574 149.078C461.615 147.467 460.653 145.858 459.688 144.25C458.585 142.399 457.484 140.547 456.383 138.695C455.828 137.762 455.272 136.829 454.7 135.868C451.796 130.968 448.929 126.047 446.062 121.125C445.486 120.136 444.909 119.146 444.315 118.127C441.301 112.955 438.292 107.781 435.285 102.605C432.369 97.5878 429.442 92.5767 426.505 87.5713C425.564 85.9636 424.626 84.3539 423.694 82.7412C422.619 80.8833 421.531 79.0342 420.438 77.1875C419.6 75.7547 419.6 75.7547 418.746 74.293C416.823 71.474 416.823 71.474 412 69C386.59 69 361.18 69 335 69ZM70.75 235.75C64.3395 245.051 62.8099 253.742 64 265C66.1088 273.802 71.006 281.169 78.4375 286.312C86.897 291.484 94.9525 294.05 104.938 292.562C114.263 290.283 122.022 285.578 128 278C133.764 268.215 135.939 258.311 133.316 247.07C129.56 237.063 123.048 229.497 113.465 224.742C97.7986 218.295 81.3849 222.596 70.75 235.75ZM379.676 234.871C373.91 242.196 370.958 251.726 372 261C374.341 272.155 378.645 279.908 387.688 286.875C396.407 292.556 405.861 294.135 416 292C425.336 289.62 432.804 284.108 437.926 275.922C443.082 265.929 444.697 256.858 441.438 245.938C437.501 235.275 430.966 229.236 421 224C406.013 217.617 390.443 223.817 379.676 234.871ZM17 237C18.0358 243.215 18.5025 244.161 23 248C25.5572 249.279 27.3674 249.113 30.2266 249.098C31.7734 249.093 31.7734 249.093 33.3516 249.088C34.4318 249.08 35.512 249.071 36.625 249.062C37.713 249.058 38.8009 249.053 39.9219 249.049C42.6146 249.037 45.3073 249.019 48 249C48.99 245.04 49.98 241.08 51 237C39.78 237 28.56 237 17 237ZM147 237C147.99 240.96 148.98 244.92 150 249C205.77 249 261.54 249 319 249C319 245.04 319 241.08 319 237C262.24 237 205.48 237 147 237Z" fill="#FDFDFD"/>
<path d="M359.218 81.823C360.283 81.8101 361.348 81.7973 362.445 81.7841C363.595 81.7767 364.745 81.7693 365.93 81.7617C367.112 81.7536 368.295 81.7455 369.513 81.7372C372.016 81.7234 374.52 81.7127 377.023 81.7048C380.853 81.6876 384.682 81.6437 388.512 81.5996C390.943 81.5894 393.374 81.5809 395.805 81.5742C396.951 81.5567 398.097 81.5392 399.277 81.5211C407.18 81.5427 407.18 81.5427 411.071 83.7131C413.057 86.068 414.596 88.3036 416.059 91.0156C416.602 92.0069 417.145 92.9982 417.705 94.0195C418.563 95.6186 418.563 95.6186 419.437 97.25C420.684 99.5271 421.933 101.803 423.184 104.078C423.818 105.235 424.452 106.392 425.105 107.584C427.984 112.774 430.987 117.887 434 123C439.565 132.47 444.974 142.019 450.295 151.629C453.08 156.643 455.913 161.582 459.041 166.392C460.996 169.67 461.247 171.96 460.375 175.625C458.575 178.733 457.287 179.502 454 181C450.776 181.436 447.581 181.41 444.332 181.388C443.364 181.393 442.396 181.399 441.398 181.404C438.203 181.417 435.008 181.409 431.812 181.398C429.59 181.4 427.367 181.403 425.144 181.407C420.487 181.412 415.83 181.405 411.173 181.391C405.204 181.374 399.236 181.384 393.267 181.402C388.677 181.413 384.088 181.409 379.498 181.401C377.297 181.399 375.096 181.402 372.895 181.409C369.819 181.416 366.744 181.405 363.668 181.388C362.759 181.394 361.849 181.4 360.913 181.407C356.138 181.359 352.855 181.151 349 178C347.383 174.765 347.844 171.221 347.839 167.666C347.834 166.805 347.829 165.943 347.824 165.055C347.809 162.195 347.802 159.336 347.797 156.477C347.791 154.494 347.785 152.511 347.78 150.528C347.769 146.366 347.763 142.205 347.76 138.044C347.754 132.708 347.73 127.373 347.702 122.037C347.683 117.94 347.678 113.843 347.676 109.746C347.673 107.779 347.665 105.811 347.652 103.844C347.635 101.093 347.637 98.3431 347.644 95.5922C347.634 94.7775 347.625 93.9629 347.616 93.1235C347.64 89.8486 347.764 87.4369 349.335 84.5254C352.335 81.7768 355.341 81.8637 359.218 81.823ZM364 99C364 120.45 364 141.9 364 164C388.42 164 412.84 164 438 164C433.262 155.116 428.55 146.34 423.437 137.687C422.235 135.64 421.033 133.591 419.832 131.543C419.213 130.488 418.594 129.432 417.956 128.345C412.254 118.592 406.639 108.789 401 99C388.79 99 376.58 99 364 99Z" fill="#FDFDFD"/>
<path d="M423 240C428.179 245.237 430.287 249.952 430.375 257.312C430.236 264.992 428.593 269.407 423.187 274.812C416.276 279.555 410.289 281.173 402 280C394.872 277.88 390.862 274.401 387.059 268.086C384.065 262.186 383.902 254.99 385.648 248.645C388.533 242.272 393.666 237.829 400 235C408.288 233.011 416.423 234.493 423 240ZM402.625 253.187C400.781 255.837 400.781 255.837 401 258.625C402.227 261.54 403.171 262.586 406 264C408.8 263.863 410.481 263.312 412.875 261.875C414.318 259.855 414.318 259.855 413.875 256.437C413.344 252.746 413.344 252.746 410 251C406.344 250.344 405.399 250.632 402.625 253.187Z" fill="#FDFDFD"/>
</svg>
