<svg width="144" height="144" viewBox="0 0 144 144" fill="none" xmlns="http://www.w3.org/2000/svg">
<g clip-path="url(#clip0_5_10)">
<path d="M140.59 61.7926L138.789 59.2624C137.061 56.8348 134.604 52.675 133.312 49.99L124.429 31.5271C122.911 28.371 118.978 25.8989 115.475 25.8989H54.0523C50.6057 25.8989 46.442 28.1676 44.572 31.064L28.2246 56.3973C26.7471 58.6871 23.2566 61.1409 20.6017 61.7561L6.27466 65.0763C2.81494 65.8777 0 69.42 0 72.972V97.9459C0 101.631 2.99835 104.63 6.68363 104.63H17.3596C19.6243 112.403 26.8086 118.102 35.303 118.102C43.7979 118.102 50.9822 112.403 53.2469 104.63H87.9057C90.1704 112.403 97.3547 118.102 105.85 118.102C114.344 118.102 121.528 112.403 123.793 104.63H137.316C141.002 104.63 144 101.631 144 97.9459V72.4656C144 69.1677 142.503 64.4793 140.59 61.7926ZM35.303 108.695C30.176 108.695 26.0191 104.537 26.0191 99.4103C26.0191 94.2828 30.176 90.1265 35.303 90.1265C40.4305 90.1265 44.5874 94.2828 44.5874 99.4103C44.5874 104.537 40.4305 108.695 35.303 108.695ZM88.2765 61.7635H41.4415C38.9996 61.7635 38.0427 60.0581 39.3158 57.974L51.1599 38.5741C52.4324 36.49 55.4718 34.7846 57.9136 34.7846H88.277L88.2765 61.7635ZM105.85 108.695C100.722 108.695 96.5652 104.537 96.5652 99.4103C96.5652 94.2828 100.722 90.1265 105.85 90.1265C110.977 90.1265 115.133 94.2828 115.133 99.4103C115.133 104.537 110.977 108.695 105.85 108.695ZM119.388 61.7635H98.9609V34.784H110.55C112.992 34.784 115.612 36.6825 116.372 39.0036L122.447 57.5439C123.207 59.8645 121.831 61.7635 119.388 61.7635Z" fill="#FDFDFD"/>
</g>
<defs>
<clipPath id="clip0_5_10">
<rect width="144" height="144" fill="white"/>
</clipPath>
</defs>
</svg>
